# xmcd CD database file
#
# Track frame offsets:
#	150
#	17764
#	30450
#	43459
#	56723
#	70909
#	82263
#	92770
#	100937
#	109514
#	118341
#	130081
#	139265
#	150319
#	156680
#	162466
#	177085
#
# Disc length: 2542 seconds
#
# Revision: 1
# Processed by: cddbd v1.4PL0 Copyright (c) Steve Scherf et al.
# Submitted via: NotifyCDPlayer 1.60beta13
#
DISCID=ef09ec11
DTITLE=Big Joe Williams - These Are My Blues
DYEAR=1900
DGENRE=
TTITLE0=Baby, Please Don't Go
TTITLE1=A Man Amongst Men
TTITLE2=Sun Never Go Down
TTITLE3=Mellow Peaches
TTITLE4='56 Plymouth
TTITLE5=Good Morning, Little School Girl
TTITLE6=These Are My Blues (Gonna Sing 'Em for Myself)
TTITLE7=Put on Your Nightcap
TTITLE8=Highway 49
TTITLE9=Bottle Up and Go
TTITLE10=Lowdown Dirty Shame
TTITLE11=Sloppy Drunk
TTITLE12=Vitamin A Blues
TTITLE13=You Are My Sunshine
TTITLE14=Boogie Chillun
TTITLE15=Don't Want No Arkansas Woman
TTITLE16=Rock Me, Mama
EXTD=
EXTT0=
EXTT1=
EXTT2=
EXTT3=
EXTT4=
EXTT5=
EXTT6=
EXTT7=
EXTT8=
EXTT9=
EXTT10=
EXTT11=
EXTT12=
EXTT13=
EXTT14=
EXTT15=
EXTT16=
PLAYORDER=
